<svg width="344" height="103" viewBox="0 0 344 103" fill="none" xmlns="http://www.w3.org/2000/svg">
<path d="M23.3864 43.424C24.7944 43.712 26.3144 43.856 27.9464 43.856C29.5144 43.856 31.3704 43.696 33.5144 43.376C36.2664 45.36 39.7064 47.2 43.8344 48.896C47.9624 50.592 52.2664 51.952 56.7464 52.976C61.2584 54 65.4024 54.512 69.1784 54.512C73.5944 54.512 77.0984 54.112 79.6904 53.312C79.7544 53.28 79.8184 53.344 79.8824 53.504C79.9464 53.696 79.9304 53.808 79.8344 53.84C78.2024 54.512 76.2504 55.104 73.9784 55.616C71.7384 56.128 68.8104 56.384 65.1944 56.384C52.2664 56.384 38.3304 52.064 23.3864 43.424ZM27.8024 44.576C24.8264 44.576 22.1704 43.888 19.8344 42.512C17.5304 41.104 15.7384 39.216 14.4584 36.848C13.2104 34.448 12.5864 31.84 12.5864 29.024C12.5864 25.728 13.4184 22.912 15.0824 20.576C16.7464 18.208 18.8744 16.432 21.4664 15.248C24.0904 14.064 26.7624 13.472 29.4824 13.472C32.5224 13.472 35.1944 14.192 37.4984 15.632C39.8024 17.04 41.5624 18.912 42.7784 21.248C44.0264 23.584 44.6504 26.064 44.6504 28.688C44.6504 31.6 43.8824 34.272 42.3464 36.704C40.8104 39.136 38.7464 41.056 36.1544 42.464C33.5944 43.872 30.8104 44.576 27.8024 44.576ZM29.3864 43.376C31.1784 43.376 32.7784 42.864 34.1864 41.84C35.6264 40.784 36.7464 39.264 37.5464 37.28C38.3464 35.264 38.7464 32.864 38.7464 30.08C38.7464 27.136 38.2984 24.512 37.4024 22.208C36.5064 19.872 35.2104 18.048 33.5144 16.736C31.8184 15.424 29.8344 14.768 27.5624 14.768C24.6504 14.768 22.4104 15.872 20.8424 18.08C19.2744 20.256 18.4904 23.312 18.4904 27.248C18.4904 30.352 18.9544 33.136 19.8824 35.6C20.8424 38.032 22.1384 39.936 23.7704 41.312C25.4344 42.688 27.3064 43.376 29.3864 43.376ZM56.2004 44.576C54.4404 44.576 53.0484 44.032 52.0244 42.944C51.0324 41.824 50.5364 40.368 50.5364 38.576V31.52C50.5364 29.44 50.0404 28.4 49.0484 28.4C48.6964 28.4 48.2964 28.512 47.8484 28.736H47.8004C47.6724 28.736 47.5764 28.656 47.5124 28.496C47.4484 28.304 47.4644 28.192 47.5604 28.16L53.9924 25.088L54.2324 25.04C54.3924 25.04 54.5524 25.12 54.7124 25.28C54.9044 25.408 55.0004 25.536 55.0004 25.664V36.272C55.0004 39.728 56.3284 41.456 58.9844 41.456C59.8804 41.456 60.7924 41.2 61.7204 40.688C62.6804 40.176 63.4324 39.504 63.9764 38.672L64.2644 39.248C63.1124 40.912 61.8644 42.224 60.5204 43.184C59.1764 44.112 57.7364 44.576 56.2004 44.576ZM67.5284 38.432C67.5284 39.52 67.6244 40.288 67.8164 40.736C68.0404 41.184 68.3924 41.408 68.8724 41.408C69.3204 41.408 69.9764 41.232 70.8404 40.88H70.9364C71.0324 40.88 71.1124 40.96 71.1764 41.12C71.2724 41.28 71.2724 41.376 71.1764 41.408L64.5524 44.624C64.4884 44.656 64.4084 44.672 64.3124 44.672C63.9604 44.672 63.6564 44.256 63.4004 43.424C63.1764 42.592 63.0644 41.472 63.0644 40.064V31.52C63.0644 29.44 62.5684 28.4 61.5764 28.4C61.2244 28.4 60.8084 28.512 60.3284 28.736H60.2804C60.1844 28.736 60.1044 28.656 60.0404 28.496C59.9764 28.304 59.9924 28.192 60.0884 28.16L66.5204 25.088C66.5844 25.056 66.6644 25.04 66.7604 25.04C66.9204 25.04 67.0804 25.12 67.2404 25.28C67.4324 25.408 67.5284 25.536 67.5284 25.664V38.432ZM79.9548 44.624C78.6428 44.624 77.4268 44.304 76.3068 43.664C75.2188 42.992 74.3548 42.016 73.7148 40.736C73.0748 39.456 72.7548 37.92 72.7548 36.128C72.7548 33.856 73.2828 31.872 74.3388 30.176C75.3948 28.448 76.7868 27.136 78.5148 26.24C80.2428 25.344 82.0988 24.896 84.0828 24.896C86.4188 24.896 88.4188 25.632 90.0828 27.104L86.5788 30.176C86.5788 28.928 86.2268 27.904 85.5228 27.104C84.8508 26.304 83.9548 25.904 82.8348 25.904C81.2348 25.904 79.9708 26.704 79.0428 28.304C78.1468 29.904 77.6988 31.968 77.6988 34.496C77.6988 36.896 78.0988 38.768 78.8988 40.112C79.7308 41.424 80.8988 42.08 82.4028 42.08C83.9068 42.08 85.5708 41.376 87.3948 39.968L87.7788 40.304C86.4348 41.68 85.1708 42.752 83.9868 43.52C82.8348 44.256 81.4908 44.624 79.9548 44.624ZM87.8748 44.672C87.5228 44.672 87.2188 44.256 86.9628 43.424C86.7068 42.592 86.5788 41.472 86.5788 40.064V26.768C87.6348 26.512 88.4348 26.272 88.9788 26.048C89.5548 25.792 90.0988 25.408 90.6108 24.896C90.6428 24.864 90.6908 24.848 90.7548 24.848C90.8188 24.848 90.8828 24.88 90.9468 24.944C91.0428 24.976 91.0908 25.024 91.0908 25.088V38.768C91.0908 39.728 91.1868 40.416 91.3788 40.832C91.6028 41.216 91.9548 41.408 92.4348 41.408C92.8508 41.408 93.5068 41.232 94.4028 40.88H94.4988C94.5948 40.88 94.6748 40.96 94.7388 41.12C94.8348 41.28 94.8348 41.376 94.7388 41.408L88.1148 44.624C88.0508 44.656 87.9708 44.672 87.8748 44.672ZM102.094 30.368C103.854 28.352 105.262 26.96 106.318 26.192C107.406 25.392 108.334 24.992 109.102 24.992C109.838 24.992 110.542 25.264 111.214 25.808C111.918 26.32 112.27 26.944 112.27 27.68C112.27 28.352 112.062 28.912 111.646 29.36C111.23 29.776 110.686 29.984 110.014 29.984C109.534 29.984 109.134 29.888 108.814 29.696C108.526 29.504 108.222 29.216 107.902 28.832C107.614 28.512 107.358 28.288 107.134 28.16C106.942 28 106.702 27.92 106.414 27.92C106.062 27.92 105.614 28.112 105.07 28.496C104.558 28.88 103.694 29.712 102.478 30.992L102.094 30.368ZM96.622 44C96.526 44 96.478 43.904 96.478 43.712C96.478 43.52 96.526 43.424 96.622 43.424C97.614 43.424 98.286 43.2 98.638 42.752C98.99 42.272 99.166 41.392 99.166 40.112V31.088C99.166 30.096 99.038 29.376 98.782 28.928C98.558 28.448 98.19 28.208 97.678 28.208C97.134 28.208 96.366 28.432 95.374 28.88H95.278C95.182 28.88 95.102 28.8 95.038 28.64C95.006 28.48 95.022 28.384 95.086 28.352L101.758 25.088C101.95 25.024 102.062 24.992 102.094 24.992C102.478 24.992 102.83 25.408 103.15 26.24C103.502 27.04 103.678 28.112 103.678 29.456V40.112C103.678 41.392 103.982 42.272 104.59 42.752C105.198 43.2 106.318 43.424 107.95 43.424C108.078 43.424 108.142 43.52 108.142 43.712C108.142 43.904 108.078 44 107.95 44C106.83 44 105.95 43.984 105.31 43.952L101.422 43.904L98.59 43.952C98.11 43.984 97.454 44 96.622 44ZM121.77 44.576C120.362 44.576 119.162 44.24 118.17 43.568C117.178 42.896 116.682 41.76 116.682 40.16V29.504C116.682 28.512 116.506 27.824 116.154 27.44C115.802 27.056 115.162 26.864 114.234 26.864C114.202 26.864 114.154 26.816 114.09 26.72C114.058 26.624 114.042 26.528 114.042 26.432C114.042 26.304 114.058 26.208 114.09 26.144C114.122 26.048 114.17 26 114.234 26C115.866 25.936 117.178 25.584 118.17 24.944C119.194 24.304 119.978 23.328 120.522 22.016C120.586 21.888 120.714 21.824 120.906 21.824C121.13 21.824 121.242 21.888 121.242 22.016V38.576C121.242 39.792 121.546 40.688 122.154 41.264C122.794 41.84 123.626 42.128 124.65 42.128C125.93 42.128 127.178 41.648 128.394 40.688L128.49 40.64C128.618 40.64 128.714 40.704 128.778 40.832C128.874 40.96 128.874 41.056 128.778 41.12C127.594 42.304 126.442 43.184 125.322 43.76C124.202 44.304 123.018 44.576 121.77 44.576ZM127.29 27.92C124.954 27.408 122.378 27.152 119.562 27.152V25.904C121.642 25.904 124.282 25.744 127.482 25.424C127.546 25.424 127.61 25.552 127.674 25.808C127.77 26.032 127.818 26.288 127.818 26.576C127.818 26.896 127.754 27.216 127.626 27.536C127.53 27.824 127.418 27.952 127.29 27.92ZM140.439 44.624C138.455 44.624 136.711 44.176 135.207 43.28C133.735 42.352 132.599 41.12 131.799 39.584C130.999 38.016 130.599 36.32 130.599 34.496C130.599 32.416 131.127 30.656 132.183 29.216C133.239 27.744 134.583 26.656 136.215 25.952C137.847 25.216 139.527 24.848 141.255 24.848C143.239 24.848 144.967 25.312 146.439 26.24C147.911 27.168 149.031 28.4 149.799 29.936C150.599 31.44 150.999 33.056 150.999 34.784C150.999 36.704 150.519 38.416 149.559 39.92C148.599 41.392 147.303 42.544 145.671 43.376C144.071 44.208 142.327 44.624 140.439 44.624ZM141.879 43.616C143.127 43.616 144.071 43.008 144.711 41.792C145.383 40.544 145.719 38.768 145.719 36.464C145.719 34.224 145.431 32.304 144.855 30.704C144.279 29.104 143.527 27.904 142.599 27.104C141.671 26.272 140.679 25.856 139.623 25.856C137.063 25.856 135.783 28.144 135.783 32.72C135.783 34.864 136.055 36.768 136.599 38.432C137.143 40.064 137.879 41.344 138.807 42.272C139.735 43.168 140.759 43.616 141.879 43.616ZM175.077 44.576C173.061 44.576 171.317 44.16 169.845 43.328C168.373 42.464 167.253 41.328 166.485 39.92C165.717 38.48 165.333 36.928 165.333 35.264C165.333 33.408 165.797 31.696 166.725 30.128C167.653 28.56 168.933 27.328 170.565 26.432C172.229 25.504 174.101 25.04 176.181 25.04C178.165 25.04 179.701 25.488 180.789 26.384C181.877 27.28 182.421 28.672 182.421 30.56C182.421 31.552 182.245 32.048 181.893 32.048H177.285C177.349 30.096 177.157 28.608 176.709 27.584C176.261 26.528 175.477 26 174.357 26C173.077 26 172.053 26.656 171.285 27.968C170.549 29.28 170.181 31.024 170.181 33.2C170.181 36.016 170.821 38.224 172.101 39.824C173.413 41.424 175.285 42.224 177.717 42.224C178.581 42.224 179.317 42.128 179.925 41.936C180.533 41.712 181.333 41.36 182.325 40.88L182.421 40.832C182.485 40.832 182.549 40.896 182.613 41.024C182.709 41.152 182.725 41.248 182.661 41.312C181.477 42.464 180.277 43.296 179.061 43.808C177.845 44.32 176.517 44.576 175.077 44.576ZM168.453 31.184L178.965 30.992V32.048L168.501 32.096L168.453 31.184ZM189.523 27.776C189.523 28.704 189.843 29.504 190.483 30.176C191.155 30.848 192.115 31.552 193.363 32.288C194.579 32.992 195.475 33.552 196.051 33.968C196.659 34.352 197.203 34.912 197.683 35.648C198.163 36.352 198.403 37.216 198.403 38.24C198.403 39.328 198.131 40.352 197.587 41.312C197.043 42.272 196.227 43.056 195.139 43.664C194.051 44.24 192.755 44.528 191.251 44.528C189.491 44.528 187.827 44.096 186.259 43.232C186.067 43.04 185.971 42.848 185.971 42.656L185.875 37.904C185.875 37.808 185.955 37.76 186.115 37.76C186.307 37.728 186.419 37.744 186.451 37.808C186.963 39.408 187.811 40.768 188.995 41.888C190.179 43.008 191.379 43.568 192.595 43.568C193.267 43.568 193.795 43.36 194.179 42.944C194.595 42.528 194.803 41.92 194.803 41.12C194.803 39.936 194.467 39.008 193.795 38.336C193.123 37.632 192.131 36.912 190.819 36.176C189.699 35.568 188.851 35.072 188.275 34.688C187.699 34.304 187.187 33.76 186.739 33.056C186.291 32.352 186.067 31.488 186.067 30.464C186.067 28.576 186.739 27.2 188.083 26.336C189.427 25.44 191.075 24.992 193.027 24.992C193.763 24.992 194.419 25.04 194.995 25.136C195.603 25.232 196.275 25.424 197.011 25.712C197.299 25.808 197.443 25.984 197.443 26.24C197.443 27.04 197.427 27.664 197.395 28.112L197.347 30.512C197.347 30.608 197.251 30.656 197.059 30.656C196.867 30.656 196.771 30.608 196.771 30.512C196.771 29.904 196.515 29.248 196.003 28.544C195.491 27.808 194.819 27.184 193.987 26.672C193.187 26.16 192.355 25.904 191.491 25.904C190.179 25.904 189.523 26.528 189.523 27.776ZM211.263 44.576C209.151 44.576 207.359 44.128 205.887 43.232C204.447 42.304 203.359 41.12 202.623 39.68C201.919 38.208 201.567 36.672 201.567 35.072C201.567 33.056 202.127 31.296 203.247 29.792C204.367 28.256 205.791 27.088 207.519 26.288C209.279 25.456 211.071 25.04 212.895 25.04C214.431 25.04 215.807 25.36 217.023 26C218.271 26.64 218.895 27.52 218.895 28.64C218.895 29.248 218.655 29.776 218.175 30.224C217.727 30.64 217.087 30.848 216.255 30.848C215.487 30.848 214.879 30.656 214.431 30.272C213.983 29.856 213.615 29.232 213.327 28.4C213.039 27.504 212.751 26.896 212.463 26.576C212.207 26.224 211.727 26.048 211.023 26.048C209.647 26.048 208.543 26.736 207.711 28.112C206.911 29.456 206.511 31.248 206.511 33.488C206.511 36.144 207.103 38.272 208.287 39.872C209.471 41.44 211.359 42.224 213.951 42.224C214.815 42.224 215.551 42.128 216.159 41.936C216.799 41.744 217.599 41.424 218.559 40.976H218.607C218.703 40.976 218.783 41.024 218.847 41.12C218.943 41.216 218.959 41.296 218.895 41.36C217.711 42.448 216.527 43.264 215.343 43.808C214.159 44.32 212.799 44.576 211.263 44.576ZM229.638 44.576C227.878 44.576 226.486 44.032 225.462 42.944C224.47 41.824 223.974 40.368 223.974 38.576V31.52C223.974 29.44 223.478 28.4 222.486 28.4C222.134 28.4 221.734 28.512 221.286 28.736H221.238C221.11 28.736 221.014 28.656 220.95 28.496C220.886 28.304 220.902 28.192 220.998 28.16L227.43 25.088L227.67 25.04C227.83 25.04 227.99 25.12 228.15 25.28C228.342 25.408 228.438 25.536 228.438 25.664V36.272C228.438 39.728 229.766 41.456 232.422 41.456C233.318 41.456 234.23 41.2 235.158 40.688C236.118 40.176 236.87 39.504 237.414 38.672L237.702 39.248C236.55 40.912 235.302 42.224 233.958 43.184C232.614 44.112 231.174 44.576 229.638 44.576ZM240.966 38.432C240.966 39.52 241.062 40.288 241.254 40.736C241.478 41.184 241.83 41.408 242.31 41.408C242.758 41.408 243.414 41.232 244.278 40.88H244.374C244.47 40.88 244.55 40.96 244.614 41.12C244.71 41.28 244.71 41.376 244.614 41.408L237.99 44.624C237.926 44.656 237.846 44.672 237.75 44.672C237.398 44.672 237.094 44.256 236.838 43.424C236.614 42.592 236.502 41.472 236.502 40.064V31.52C236.502 29.44 236.006 28.4 235.014 28.4C234.662 28.4 234.246 28.512 233.766 28.736H233.718C233.622 28.736 233.542 28.656 233.478 28.496C233.414 28.304 233.43 28.192 233.526 28.16L239.958 25.088C240.022 25.056 240.102 25.04 240.198 25.04C240.358 25.04 240.518 25.12 240.678 25.28C240.87 25.408 240.966 25.536 240.966 25.664V38.432ZM252 30.368C253.76 28.352 255.168 26.96 256.224 26.192C257.312 25.392 258.24 24.992 259.008 24.992C259.744 24.992 260.448 25.264 261.12 25.808C261.824 26.32 262.176 26.944 262.176 27.68C262.176 28.352 261.968 28.912 261.552 29.36C261.136 29.776 260.592 29.984 259.92 29.984C259.44 29.984 259.04 29.888 258.72 29.696C258.432 29.504 258.128 29.216 257.808 28.832C257.52 28.512 257.264 28.288 257.04 28.16C256.848 28 256.608 27.92 256.32 27.92C255.968 27.92 255.52 28.112 254.976 28.496C254.464 28.88 253.6 29.712 252.384 30.992L252 30.368ZM246.528 44C246.432 44 246.384 43.904 246.384 43.712C246.384 43.52 246.432 43.424 246.528 43.424C247.52 43.424 248.192 43.2 248.544 42.752C248.896 42.272 249.072 41.392 249.072 40.112V31.088C249.072 30.096 248.944 29.376 248.688 28.928C248.464 28.448 248.096 28.208 247.584 28.208C247.04 28.208 246.272 28.432 245.28 28.88H245.184C245.088 28.88 245.008 28.8 244.944 28.64C244.912 28.48 244.928 28.384 244.992 28.352L251.664 25.088C251.856 25.024 251.968 24.992 252 24.992C252.384 24.992 252.736 25.408 253.056 26.24C253.408 27.04 253.584 28.112 253.584 29.456V40.112C253.584 41.392 253.888 42.272 254.496 42.752C255.104 43.2 256.224 43.424 257.856 43.424C257.984 43.424 258.048 43.52 258.048 43.712C258.048 43.904 257.984 44 257.856 44C256.736 44 255.856 43.984 255.216 43.952L251.328 43.904L248.496 43.952C248.016 43.984 247.36 44 246.528 44ZM273.657 44.624C271.673 44.624 269.929 44.176 268.425 43.28C266.953 42.352 265.817 41.12 265.017 39.584C264.217 38.016 263.817 36.32 263.817 34.496C263.817 32.416 264.345 30.656 265.401 29.216C266.457 27.744 267.801 26.656 269.433 25.952C271.065 25.216 272.745 24.848 274.473 24.848C276.457 24.848 278.185 25.312 279.657 26.24C281.129 27.168 282.249 28.4 283.017 29.936C283.817 31.44 284.217 33.056 284.217 34.784C284.217 36.704 283.737 38.416 282.777 39.92C281.817 41.392 280.521 42.544 278.889 43.376C277.289 44.208 275.545 44.624 273.657 44.624ZM275.097 43.616C276.345 43.616 277.289 43.008 277.929 41.792C278.601 40.544 278.937 38.768 278.937 36.464C278.937 34.224 278.649 32.304 278.073 30.704C277.497 29.104 276.745 27.904 275.817 27.104C274.889 26.272 273.897 25.856 272.841 25.856C270.281 25.856 269.001 28.144 269.001 32.72C269.001 34.864 269.273 36.768 269.817 38.432C270.361 40.064 271.097 41.344 272.025 42.272C272.953 43.168 273.977 43.616 275.097 43.616Z" fill="#E6E6E6"/>
<path d="M83.4319 49.104L84.8239 49.2L84.2959 71.904C84.2639 73.632 84.5999 74.992 85.3039 75.984C86.0399 76.944 87.0639 77.424 88.3759 77.424C88.4719 77.424 88.5199 77.52 88.5199 77.712C88.5199 77.904 88.4719 78 88.3759 78C87.5119 78 86.8399 77.984 86.3599 77.952L83.7199 77.904L80.6959 77.952C80.1839 77.984 79.4959 78 78.6319 78C78.5359 78 78.4879 77.904 78.4879 77.712C78.4879 77.52 78.5359 77.424 78.6319 77.424C79.9439 77.424 80.9839 76.928 81.7519 75.936C82.5199 74.944 82.9199 73.6 82.9519 71.904L83.4319 49.104ZM117.32 77.424C117.384 77.424 117.416 77.52 117.416 77.712C117.416 77.904 117.384 78 117.32 78C116.232 78 115.368 77.984 114.728 77.952L111.176 77.904L107.576 77.952C106.968 77.984 106.136 78 105.08 78C104.984 78 104.936 77.904 104.936 77.712C104.936 77.52 104.984 77.424 105.08 77.424C106.104 77.424 106.856 77.344 107.336 77.184C107.848 76.992 108.184 76.672 108.344 76.224C108.504 75.776 108.552 75.072 108.488 74.112L107.384 52.8L109.832 48.96L97.5919 77.664C97.5279 77.792 97.3999 77.856 97.2079 77.856C97.0159 77.856 96.8879 77.792 96.8239 77.664L83.3359 51.984C82.6959 50.8 82.0239 49.936 81.3199 49.392C80.6479 48.848 79.8639 48.576 78.9679 48.576C78.8719 48.576 78.8239 48.48 78.8239 48.288C78.8239 48.096 78.8719 48 78.9679 48L81.2239 48.048C81.6719 48.08 82.2479 48.096 82.9519 48.096L85.4959 48.048C85.7839 48.016 86.1519 48 86.5999 48C87.0159 48 87.3359 48.144 87.5599 48.432C87.7839 48.72 88.1999 49.408 88.8079 50.496L99.5599 70.656L97.1599 74.976L108.392 49.2C108.584 48.752 108.776 48.448 108.968 48.288C109.192 48.096 109.48 48 109.832 48C110.12 48 110.44 48.016 110.792 48.048C111.176 48.08 111.608 48.096 112.088 48.096L114.92 48.048C115.368 48.016 116.008 48 116.84 48C116.936 48 116.984 48.096 116.984 48.288C116.984 48.48 116.936 48.576 116.84 48.576C115.336 48.576 114.248 48.88 113.576 49.488C112.904 50.096 112.6 51.04 112.664 52.32L113.816 74.112C113.88 75.104 113.992 75.824 114.152 76.272C114.344 76.72 114.664 77.024 115.112 77.184C115.592 77.344 116.328 77.424 117.32 77.424ZM129.772 78.576C127.756 78.576 126.012 78.16 124.54 77.328C123.068 76.464 121.948 75.328 121.18 73.92C120.412 72.48 120.028 70.928 120.028 69.264C120.028 67.408 120.492 65.696 121.42 64.128C122.348 62.56 123.628 61.328 125.26 60.432C126.924 59.504 128.796 59.04 130.876 59.04C132.86 59.04 134.396 59.488 135.484 60.384C136.572 61.28 137.116 62.672 137.116 64.56C137.116 65.552 136.94 66.048 136.588 66.048H131.98C132.044 64.096 131.852 62.608 131.404 61.584C130.956 60.528 130.172 60 129.052 60C127.772 60 126.748 60.656 125.98 61.968C125.244 63.28 124.876 65.024 124.876 67.2C124.876 70.016 125.516 72.224 126.796 73.824C128.108 75.424 129.98 76.224 132.412 76.224C133.276 76.224 134.012 76.128 134.62 75.936C135.228 75.712 136.028 75.36 137.02 74.88L137.116 74.832C137.18 74.832 137.244 74.896 137.308 75.024C137.404 75.152 137.42 75.248 137.356 75.312C136.172 76.464 134.972 77.296 133.756 77.808C132.54 78.32 131.212 78.576 129.772 78.576ZM123.148 65.184L133.66 64.992V66.048L123.196 66.096L123.148 65.184ZM153.339 78C153.243 78 153.195 77.904 153.195 77.712C153.195 77.52 153.243 77.424 153.339 77.424C154.331 77.424 155.003 77.2 155.355 76.752C155.707 76.272 155.883 75.392 155.883 74.112V67.2C155.883 65.472 155.563 64.192 154.923 63.36C154.315 62.528 153.339 62.112 151.995 62.112C151.003 62.112 149.995 62.368 148.971 62.88C147.979 63.36 147.195 64 146.619 64.8L146.379 64.224C147.531 62.56 148.811 61.264 150.219 60.336C151.659 59.376 153.179 58.896 154.779 58.896C156.507 58.896 157.867 59.456 158.859 60.576C159.883 61.664 160.395 63.104 160.395 64.896V74.112C160.395 75.392 160.571 76.272 160.923 76.752C161.307 77.2 161.995 77.424 162.987 77.424C163.083 77.424 163.131 77.52 163.131 77.712C163.131 77.904 163.083 78 162.987 78C162.155 78 161.499 77.984 161.019 77.952L158.139 77.904L155.355 77.952C154.843 77.984 154.171 78 153.339 78ZM140.427 78C140.331 78 140.283 77.904 140.283 77.712C140.283 77.52 140.331 77.424 140.427 77.424C141.419 77.424 142.091 77.2 142.443 76.752C142.795 76.272 142.971 75.392 142.971 74.112V65.088C142.971 64.096 142.843 63.376 142.587 62.928C142.363 62.448 141.995 62.208 141.483 62.208C140.939 62.208 140.171 62.432 139.179 62.88H139.083C138.987 62.88 138.907 62.8 138.843 62.64C138.811 62.48 138.827 62.384 138.891 62.352L145.563 59.088C145.755 59.024 145.867 58.992 145.899 58.992C146.283 58.992 146.635 59.408 146.955 60.24C147.307 61.04 147.483 62.112 147.483 63.456V74.112C147.483 75.392 147.659 76.272 148.011 76.752C148.395 77.2 149.083 77.424 150.075 77.424C150.171 77.424 150.219 77.52 150.219 77.712C150.219 77.904 150.171 78 150.075 78C149.243 78 148.587 77.984 148.107 77.952L145.227 77.904L142.395 77.952C141.915 77.984 141.259 78 140.427 78ZM172.652 78.576C171.244 78.576 170.044 78.24 169.052 77.568C168.06 76.896 167.564 75.76 167.564 74.16V63.504C167.564 62.512 167.388 61.824 167.036 61.44C166.684 61.056 166.044 60.864 165.116 60.864C165.084 60.864 165.036 60.816 164.972 60.72C164.94 60.624 164.924 60.528 164.924 60.432C164.924 60.304 164.94 60.208 164.972 60.144C165.004 60.048 165.052 60 165.116 60C166.748 59.936 168.06 59.584 169.052 58.944C170.076 58.304 170.86 57.328 171.404 56.016C171.468 55.888 171.596 55.824 171.788 55.824C172.012 55.824 172.124 55.888 172.124 56.016V72.576C172.124 73.792 172.428 74.688 173.036 75.264C173.676 75.84 174.508 76.128 175.532 76.128C176.812 76.128 178.06 75.648 179.276 74.688L179.372 74.64C179.5 74.64 179.596 74.704 179.66 74.832C179.756 74.96 179.756 75.056 179.66 75.12C178.476 76.304 177.324 77.184 176.204 77.76C175.084 78.304 173.9 78.576 172.652 78.576ZM178.172 61.92C175.836 61.408 173.26 61.152 170.444 61.152V59.904C172.524 59.904 175.164 59.744 178.364 59.424C178.428 59.424 178.492 59.552 178.556 59.808C178.652 60.032 178.7 60.288 178.7 60.576C178.7 60.896 178.636 61.216 178.508 61.536C178.412 61.824 178.3 61.952 178.172 61.92ZM191.225 78.576C189.209 78.576 187.465 78.16 185.993 77.328C184.521 76.464 183.401 75.328 182.633 73.92C181.865 72.48 181.481 70.928 181.481 69.264C181.481 67.408 181.945 65.696 182.873 64.128C183.801 62.56 185.081 61.328 186.713 60.432C188.377 59.504 190.249 59.04 192.329 59.04C194.313 59.04 195.849 59.488 196.937 60.384C198.025 61.28 198.569 62.672 198.569 64.56C198.569 65.552 198.393 66.048 198.041 66.048H193.433C193.497 64.096 193.305 62.608 192.857 61.584C192.409 60.528 191.625 60 190.505 60C189.225 60 188.201 60.656 187.433 61.968C186.697 63.28 186.329 65.024 186.329 67.2C186.329 70.016 186.969 72.224 188.249 73.824C189.561 75.424 191.433 76.224 193.865 76.224C194.729 76.224 195.465 76.128 196.073 75.936C196.681 75.712 197.481 75.36 198.473 74.88L198.569 74.832C198.633 74.832 198.697 74.896 198.761 75.024C198.857 75.152 198.873 75.248 198.809 75.312C197.625 76.464 196.425 77.296 195.209 77.808C193.993 78.32 192.665 78.576 191.225 78.576ZM184.601 65.184L195.113 64.992V66.048L184.649 66.096L184.601 65.184ZM219.994 78.624C218.682 78.624 217.466 78.304 216.346 77.664C215.258 76.992 214.394 76.016 213.754 74.736C213.114 73.456 212.794 71.92 212.794 70.128C212.794 67.856 213.322 65.872 214.378 64.176C215.434 62.448 216.826 61.136 218.554 60.24C220.282 59.344 222.138 58.896 224.122 58.896C226.458 58.896 228.458 59.632 230.122 61.104L226.618 64.176C226.618 62.928 226.266 61.904 225.562 61.104C224.89 60.304 223.994 59.904 222.874 59.904C221.274 59.904 220.01 60.704 219.082 62.304C218.186 63.904 217.738 65.968 217.738 68.496C217.738 70.896 218.138 72.768 218.938 74.112C219.77 75.424 220.938 76.08 222.442 76.08C223.946 76.08 225.61 75.376 227.434 73.968L227.818 74.304C226.474 75.68 225.21 76.752 224.026 77.52C222.874 78.256 221.53 78.624 219.994 78.624ZM227.914 78.672C227.562 78.672 227.258 78.256 227.002 77.424C226.746 76.592 226.618 75.472 226.618 74.064V60.768C227.674 60.512 228.474 60.272 229.018 60.048C229.594 59.792 230.138 59.408 230.65 58.896C230.682 58.864 230.73 58.848 230.794 58.848C230.858 58.848 230.922 58.88 230.986 58.944C231.082 58.976 231.13 59.024 231.13 59.088V72.768C231.13 73.728 231.226 74.416 231.418 74.832C231.642 75.216 231.994 75.408 232.474 75.408C232.89 75.408 233.546 75.232 234.442 74.88H234.538C234.634 74.88 234.714 74.96 234.778 75.12C234.874 75.28 234.874 75.376 234.778 75.408L228.154 78.624C228.09 78.656 228.01 78.672 227.914 78.672ZM246.021 78.576C243.909 78.576 242.117 78.128 240.645 77.232C239.205 76.304 238.117 75.12 237.381 73.68C236.677 72.208 236.325 70.672 236.325 69.072C236.325 67.056 236.885 65.296 238.005 63.792C239.125 62.256 240.549 61.088 242.277 60.288C244.037 59.456 245.829 59.04 247.653 59.04C249.189 59.04 250.565 59.36 251.781 60C253.029 60.64 253.653 61.52 253.653 62.64C253.653 63.248 253.413 63.776 252.933 64.224C252.485 64.64 251.845 64.848 251.013 64.848C250.245 64.848 249.637 64.656 249.189 64.272C248.741 63.856 248.373 63.232 248.085 62.4C247.797 61.504 247.509 60.896 247.221 60.576C246.965 60.224 246.485 60.048 245.781 60.048C244.405 60.048 243.301 60.736 242.469 62.112C241.669 63.456 241.269 65.248 241.269 67.488C241.269 70.144 241.861 72.272 243.045 73.872C244.229 75.44 246.117 76.224 248.709 76.224C249.573 76.224 250.309 76.128 250.917 75.936C251.557 75.744 252.357 75.424 253.317 74.976H253.365C253.461 74.976 253.541 75.024 253.605 75.12C253.701 75.216 253.717 75.296 253.653 75.36C252.469 76.448 251.285 77.264 250.101 77.808C248.917 78.32 247.557 78.576 246.021 78.576ZM266.178 78.576C264.162 78.576 262.418 78.16 260.946 77.328C259.474 76.464 258.354 75.328 257.586 73.92C256.818 72.48 256.434 70.928 256.434 69.264C256.434 67.408 256.898 65.696 257.826 64.128C258.754 62.56 260.034 61.328 261.666 60.432C263.33 59.504 265.202 59.04 267.282 59.04C269.266 59.04 270.802 59.488 271.89 60.384C272.978 61.28 273.522 62.672 273.522 64.56C273.522 65.552 273.346 66.048 272.994 66.048H268.386C268.45 64.096 268.258 62.608 267.81 61.584C267.362 60.528 266.578 60 265.458 60C264.178 60 263.154 60.656 262.386 61.968C261.65 63.28 261.282 65.024 261.282 67.2C261.282 70.016 261.922 72.224 263.202 73.824C264.514 75.424 266.386 76.224 268.818 76.224C269.682 76.224 270.418 76.128 271.026 75.936C271.634 75.712 272.434 75.36 273.426 74.88L273.522 74.832C273.586 74.832 273.65 74.896 273.714 75.024C273.81 75.152 273.826 75.248 273.762 75.312C272.578 76.464 271.378 77.296 270.162 77.808C268.946 78.32 267.618 78.576 266.178 78.576ZM259.554 65.184L270.066 64.992V66.048L259.602 66.096L259.554 65.184ZM280.625 61.776C280.625 62.704 280.945 63.504 281.585 64.176C282.257 64.848 283.217 65.552 284.465 66.288C285.681 66.992 286.577 67.552 287.153 67.968C287.761 68.352 288.305 68.912 288.785 69.648C289.265 70.352 289.505 71.216 289.505 72.24C289.505 73.328 289.233 74.352 288.689 75.312C288.145 76.272 287.329 77.056 286.241 77.664C285.153 78.24 283.857 78.528 282.353 78.528C280.593 78.528 278.929 78.096 277.361 77.232C277.169 77.04 277.073 76.848 277.073 76.656L276.977 71.904C276.977 71.808 277.057 71.76 277.217 71.76C277.409 71.728 277.521 71.744 277.553 71.808C278.065 73.408 278.913 74.768 280.097 75.888C281.281 77.008 282.481 77.568 283.697 77.568C284.369 77.568 284.897 77.36 285.281 76.944C285.697 76.528 285.905 75.92 285.905 75.12C285.905 73.936 285.569 73.008 284.897 72.336C284.225 71.632 283.233 70.912 281.921 70.176C280.801 69.568 279.953 69.072 279.377 68.688C278.801 68.304 278.289 67.76 277.841 67.056C277.393 66.352 277.169 65.488 277.169 64.464C277.169 62.576 277.841 61.2 279.185 60.336C280.529 59.44 282.177 58.992 284.129 58.992C284.865 58.992 285.521 59.04 286.097 59.136C286.705 59.232 287.377 59.424 288.113 59.712C288.401 59.808 288.545 59.984 288.545 60.24C288.545 61.04 288.529 61.664 288.497 62.112L288.449 64.512C288.449 64.608 288.353 64.656 288.161 64.656C287.969 64.656 287.873 64.608 287.873 64.512C287.873 63.904 287.617 63.248 287.105 62.544C286.593 61.808 285.921 61.184 285.089 60.672C284.289 60.16 283.457 59.904 282.593 59.904C281.281 59.904 280.625 60.528 280.625 61.776ZM299.869 78.624C298.557 78.624 297.341 78.304 296.221 77.664C295.133 76.992 294.269 76.016 293.629 74.736C292.989 73.456 292.669 71.92 292.669 70.128C292.669 67.856 293.197 65.872 294.253 64.176C295.309 62.448 296.701 61.136 298.429 60.24C300.157 59.344 302.013 58.896 303.997 58.896C306.333 58.896 308.333 59.632 309.997 61.104L306.493 64.176C306.493 62.928 306.141 61.904 305.437 61.104C304.765 60.304 303.869 59.904 302.749 59.904C301.149 59.904 299.885 60.704 298.957 62.304C298.061 63.904 297.613 65.968 297.613 68.496C297.613 70.896 298.013 72.768 298.813 74.112C299.645 75.424 300.813 76.08 302.317 76.08C303.821 76.08 305.485 75.376 307.309 73.968L307.693 74.304C306.349 75.68 305.085 76.752 303.901 77.52C302.749 78.256 301.405 78.624 299.869 78.624ZM307.789 78.672C307.437 78.672 307.133 78.256 306.877 77.424C306.621 76.592 306.493 75.472 306.493 74.064V60.768C307.549 60.512 308.349 60.272 308.893 60.048C309.469 59.792 310.013 59.408 310.525 58.896C310.557 58.864 310.605 58.848 310.669 58.848C310.733 58.848 310.797 58.88 310.861 58.944C310.957 58.976 311.005 59.024 311.005 59.088V72.768C311.005 73.728 311.101 74.416 311.293 74.832C311.517 75.216 311.869 75.408 312.349 75.408C312.765 75.408 313.421 75.232 314.317 74.88H314.413C314.509 74.88 314.589 74.96 314.653 75.12C314.749 75.28 314.749 75.376 314.653 75.408L308.029 78.624C307.965 78.656 307.885 78.672 307.789 78.672Z" fill="#E6E6E6"/>
<path fill-rule="evenodd" clip-rule="evenodd" d="M297.979 16.25C300.553 17.7143 302.691 19.8364 304.175 22.3988C305.659 24.9613 306.436 27.8722 306.425 30.8333C306.425 40.0375 299.088 47.5 290.038 47.5C287.65 47.5 285.379 46.9792 283.333 46.0458C286.688 50.7167 292.11 53.75 298.231 53.75C308.413 53.75 316.667 45.3542 316.667 35C316.667 24.6458 308.413 16.25 298.231 16.25H297.979Z" fill="#F1B559"/>
<path d="M29.3631 28.7916C29.928 28.171 30.7601 26.9618 31.965 25.3541L31.9658 25.3532C30.4393 26.6232 29.2905 27.499 28.7017 28.0937C28.7948 26.6466 28.6464 23.763 28.4996 19C28.3528 23.763 28.2044 26.6466 28.2984 28.0954C27.7087 27.5008 26.5608 26.6241 25.0343 25.355L25.0351 25.3559C26.2408 26.9635 27.0721 28.1727 27.6369 28.7934C26.2614 28.6944 23.5235 28.8507 19 29.0052C23.5235 29.1597 26.2615 29.316 27.6369 29.217C27.072 29.8377 26.2399 31.0468 25.0342 32.6545L25.0351 32.6536C26.5616 31.3846 27.7095 30.5087 28.2992 29.9132C28.2043 31.3611 28.3528 34.2421 28.4996 39C28.6464 34.2423 28.7948 31.3612 28.7008 29.9132C29.2905 30.5079 30.4384 31.3837 31.9649 32.6536L31.9658 32.6545C30.7601 31.046 29.928 29.8368 29.3631 29.2161C30.7386 29.3151 33.4765 29.1588 38 29.0043C33.4765 28.8489 30.7386 28.6935 29.3631 28.7916Z" fill="#F1B559"/>
<path d="M29 69.5C35.268 69.5 38 65.8375 38 57C38 65.8375 40.713 69.5 47 69.5C40.713 69.5 38 73.2681 38 82C38 73.2681 35.268 69.5 29 69.5Z" fill="#F1B559" stroke="#F1B559" stroke-width="1.5" stroke-linejoin="round"/>
</svg>
