<svg width="405" height="119" viewBox="0 0 405 119" fill="none" xmlns="http://www.w3.org/2000/svg">
<path d="M49.8864 43.424C51.2944 43.712 52.8144 43.856 54.4464 43.856C56.0144 43.856 57.8704 43.696 60.0144 43.376C62.7664 45.36 66.2064 47.2 70.3344 48.896C74.4624 50.592 78.7664 51.952 83.2464 52.976C87.7584 54 91.9024 54.512 95.6784 54.512C100.094 54.512 103.598 54.112 106.19 53.312C106.254 53.28 106.318 53.344 106.382 53.504C106.446 53.696 106.43 53.808 106.334 53.84C104.702 54.512 102.75 55.104 100.478 55.616C98.2384 56.128 95.3104 56.384 91.6944 56.384C78.7664 56.384 64.8304 52.064 49.8864 43.424ZM54.3024 44.576C51.3264 44.576 48.6704 43.888 46.3344 42.512C44.0304 41.104 42.2384 39.216 40.9584 36.848C39.7104 34.448 39.0864 31.84 39.0864 29.024C39.0864 25.728 39.9184 22.912 41.5824 20.576C43.2464 18.208 45.3744 16.432 47.9664 15.248C50.5904 14.064 53.2624 13.472 55.9824 13.472C59.0224 13.472 61.6944 14.192 63.9984 15.632C66.3024 17.04 68.0624 18.912 69.2784 21.248C70.5264 23.584 71.1504 26.064 71.1504 28.688C71.1504 31.6 70.3824 34.272 68.8464 36.704C67.3104 39.136 65.2464 41.056 62.6544 42.464C60.0944 43.872 57.3104 44.576 54.3024 44.576ZM55.8864 43.376C57.6784 43.376 59.2784 42.864 60.6864 41.84C62.1264 40.784 63.2464 39.264 64.0464 37.28C64.8464 35.264 65.2464 32.864 65.2464 30.08C65.2464 27.136 64.7984 24.512 63.9024 22.208C63.0064 19.872 61.7104 18.048 60.0144 16.736C58.3184 15.424 56.3344 14.768 54.0624 14.768C51.1504 14.768 48.9104 15.872 47.3424 18.08C45.7744 20.256 44.9904 23.312 44.9904 27.248C44.9904 30.352 45.4544 33.136 46.3824 35.6C47.3424 38.032 48.6384 39.936 50.2704 41.312C51.9344 42.688 53.8064 43.376 55.8864 43.376ZM82.7004 44.576C80.9404 44.576 79.5484 44.032 78.5244 42.944C77.5324 41.824 77.0364 40.368 77.0364 38.576V31.52C77.0364 29.44 76.5404 28.4 75.5484 28.4C75.1964 28.4 74.7964 28.512 74.3484 28.736H74.3004C74.1724 28.736 74.0764 28.656 74.0124 28.496C73.9484 28.304 73.9644 28.192 74.0604 28.16L80.4924 25.088L80.7324 25.04C80.8924 25.04 81.0524 25.12 81.2124 25.28C81.4044 25.408 81.5004 25.536 81.5004 25.664V36.272C81.5004 39.728 82.8284 41.456 85.4844 41.456C86.3804 41.456 87.2924 41.2 88.2204 40.688C89.1804 40.176 89.9324 39.504 90.4764 38.672L90.7644 39.248C89.6124 40.912 88.3644 42.224 87.0204 43.184C85.6764 44.112 84.2364 44.576 82.7004 44.576ZM94.0284 38.432C94.0284 39.52 94.1244 40.288 94.3164 40.736C94.5404 41.184 94.8924 41.408 95.3724 41.408C95.8204 41.408 96.4764 41.232 97.3404 40.88H97.4364C97.5324 40.88 97.6124 40.96 97.6764 41.12C97.7724 41.28 97.7724 41.376 97.6764 41.408L91.0524 44.624C90.9884 44.656 90.9084 44.672 90.8124 44.672C90.4604 44.672 90.1564 44.256 89.9004 43.424C89.6764 42.592 89.5644 41.472 89.5644 40.064V31.52C89.5644 29.44 89.0684 28.4 88.0764 28.4C87.7244 28.4 87.3084 28.512 86.8284 28.736H86.7804C86.6844 28.736 86.6044 28.656 86.5404 28.496C86.4764 28.304 86.4924 28.192 86.5884 28.16L93.0204 25.088C93.0844 25.056 93.1644 25.04 93.2604 25.04C93.4204 25.04 93.5804 25.12 93.7404 25.28C93.9324 25.408 94.0284 25.536 94.0284 25.664V38.432ZM106.455 44.624C105.143 44.624 103.927 44.304 102.807 43.664C101.719 42.992 100.855 42.016 100.215 40.736C99.5748 39.456 99.2548 37.92 99.2548 36.128C99.2548 33.856 99.7828 31.872 100.839 30.176C101.895 28.448 103.287 27.136 105.015 26.24C106.743 25.344 108.599 24.896 110.583 24.896C112.919 24.896 114.919 25.632 116.583 27.104L113.079 30.176C113.079 28.928 112.727 27.904 112.023 27.104C111.351 26.304 110.455 25.904 109.335 25.904C107.735 25.904 106.471 26.704 105.543 28.304C104.647 29.904 104.199 31.968 104.199 34.496C104.199 36.896 104.599 38.768 105.399 40.112C106.231 41.424 107.399 42.08 108.903 42.08C110.407 42.08 112.071 41.376 113.895 39.968L114.279 40.304C112.935 41.68 111.671 42.752 110.487 43.52C109.335 44.256 107.991 44.624 106.455 44.624ZM114.375 44.672C114.023 44.672 113.719 44.256 113.463 43.424C113.207 42.592 113.079 41.472 113.079 40.064V26.768C114.135 26.512 114.935 26.272 115.479 26.048C116.055 25.792 116.599 25.408 117.111 24.896C117.143 24.864 117.191 24.848 117.255 24.848C117.319 24.848 117.383 24.88 117.447 24.944C117.543 24.976 117.591 25.024 117.591 25.088V38.768C117.591 39.728 117.687 40.416 117.879 40.832C118.103 41.216 118.455 41.408 118.935 41.408C119.351 41.408 120.007 41.232 120.903 40.88H120.999C121.095 40.88 121.175 40.96 121.239 41.12C121.335 41.28 121.335 41.376 121.239 41.408L114.615 44.624C114.551 44.656 114.471 44.672 114.375 44.672ZM128.594 30.368C130.354 28.352 131.762 26.96 132.818 26.192C133.906 25.392 134.834 24.992 135.602 24.992C136.338 24.992 137.042 25.264 137.714 25.808C138.418 26.32 138.77 26.944 138.77 27.68C138.77 28.352 138.562 28.912 138.146 29.36C137.73 29.776 137.186 29.984 136.514 29.984C136.034 29.984 135.634 29.888 135.314 29.696C135.026 29.504 134.722 29.216 134.402 28.832C134.114 28.512 133.858 28.288 133.634 28.16C133.442 28 133.202 27.92 132.914 27.92C132.562 27.92 132.114 28.112 131.57 28.496C131.058 28.88 130.194 29.712 128.978 30.992L128.594 30.368ZM123.122 44C123.026 44 122.978 43.904 122.978 43.712C122.978 43.52 123.026 43.424 123.122 43.424C124.114 43.424 124.786 43.2 125.138 42.752C125.49 42.272 125.666 41.392 125.666 40.112V31.088C125.666 30.096 125.538 29.376 125.282 28.928C125.058 28.448 124.69 28.208 124.178 28.208C123.634 28.208 122.866 28.432 121.874 28.88H121.778C121.682 28.88 121.602 28.8 121.538 28.64C121.506 28.48 121.522 28.384 121.586 28.352L128.258 25.088C128.45 25.024 128.562 24.992 128.594 24.992C128.978 24.992 129.33 25.408 129.65 26.24C130.002 27.04 130.178 28.112 130.178 29.456V40.112C130.178 41.392 130.482 42.272 131.09 42.752C131.698 43.2 132.818 43.424 134.45 43.424C134.578 43.424 134.642 43.52 134.642 43.712C134.642 43.904 134.578 44 134.45 44C133.33 44 132.45 43.984 131.81 43.952L127.922 43.904L125.09 43.952C124.61 43.984 123.954 44 123.122 44ZM148.27 44.576C146.862 44.576 145.662 44.24 144.67 43.568C143.678 42.896 143.182 41.76 143.182 40.16V29.504C143.182 28.512 143.006 27.824 142.654 27.44C142.302 27.056 141.662 26.864 140.734 26.864C140.702 26.864 140.654 26.816 140.59 26.72C140.558 26.624 140.542 26.528 140.542 26.432C140.542 26.304 140.558 26.208 140.59 26.144C140.622 26.048 140.67 26 140.734 26C142.366 25.936 143.678 25.584 144.67 24.944C145.694 24.304 146.478 23.328 147.022 22.016C147.086 21.888 147.214 21.824 147.406 21.824C147.63 21.824 147.742 21.888 147.742 22.016V38.576C147.742 39.792 148.046 40.688 148.654 41.264C149.294 41.84 150.126 42.128 151.15 42.128C152.43 42.128 153.678 41.648 154.894 40.688L154.99 40.64C155.118 40.64 155.214 40.704 155.278 40.832C155.374 40.96 155.374 41.056 155.278 41.12C154.094 42.304 152.942 43.184 151.822 43.76C150.702 44.304 149.518 44.576 148.27 44.576ZM153.79 27.92C151.454 27.408 148.878 27.152 146.062 27.152V25.904C148.142 25.904 150.782 25.744 153.982 25.424C154.046 25.424 154.11 25.552 154.174 25.808C154.27 26.032 154.318 26.288 154.318 26.576C154.318 26.896 154.254 27.216 154.126 27.536C154.03 27.824 153.918 27.952 153.79 27.92ZM166.939 44.624C164.955 44.624 163.211 44.176 161.707 43.28C160.235 42.352 159.099 41.12 158.299 39.584C157.499 38.016 157.099 36.32 157.099 34.496C157.099 32.416 157.627 30.656 158.683 29.216C159.739 27.744 161.083 26.656 162.715 25.952C164.347 25.216 166.027 24.848 167.755 24.848C169.739 24.848 171.467 25.312 172.939 26.24C174.411 27.168 175.531 28.4 176.299 29.936C177.099 31.44 177.499 33.056 177.499 34.784C177.499 36.704 177.019 38.416 176.059 39.92C175.099 41.392 173.803 42.544 172.171 43.376C170.571 44.208 168.827 44.624 166.939 44.624ZM168.379 43.616C169.627 43.616 170.571 43.008 171.211 41.792C171.883 40.544 172.219 38.768 172.219 36.464C172.219 34.224 171.931 32.304 171.355 30.704C170.779 29.104 170.027 27.904 169.099 27.104C168.171 26.272 167.179 25.856 166.123 25.856C163.563 25.856 162.283 28.144 162.283 32.72C162.283 34.864 162.555 36.768 163.099 38.432C163.643 40.064 164.379 41.344 165.307 42.272C166.235 43.168 167.259 43.616 168.379 43.616ZM201.577 44.576C199.561 44.576 197.817 44.16 196.345 43.328C194.873 42.464 193.753 41.328 192.985 39.92C192.217 38.48 191.833 36.928 191.833 35.264C191.833 33.408 192.297 31.696 193.225 30.128C194.153 28.56 195.433 27.328 197.065 26.432C198.729 25.504 200.601 25.04 202.681 25.04C204.665 25.04 206.201 25.488 207.289 26.384C208.377 27.28 208.921 28.672 208.921 30.56C208.921 31.552 208.745 32.048 208.393 32.048H203.785C203.849 30.096 203.657 28.608 203.209 27.584C202.761 26.528 201.977 26 200.857 26C199.577 26 198.553 26.656 197.785 27.968C197.049 29.28 196.681 31.024 196.681 33.2C196.681 36.016 197.321 38.224 198.601 39.824C199.913 41.424 201.785 42.224 204.217 42.224C205.081 42.224 205.817 42.128 206.425 41.936C207.033 41.712 207.833 41.36 208.825 40.88L208.921 40.832C208.985 40.832 209.049 40.896 209.113 41.024C209.209 41.152 209.225 41.248 209.161 41.312C207.977 42.464 206.777 43.296 205.561 43.808C204.345 44.32 203.017 44.576 201.577 44.576ZM194.953 31.184L205.465 30.992V32.048L195.001 32.096L194.953 31.184ZM216.023 27.776C216.023 28.704 216.343 29.504 216.983 30.176C217.655 30.848 218.615 31.552 219.863 32.288C221.079 32.992 221.975 33.552 222.551 33.968C223.159 34.352 223.703 34.912 224.183 35.648C224.663 36.352 224.903 37.216 224.903 38.24C224.903 39.328 224.631 40.352 224.087 41.312C223.543 42.272 222.727 43.056 221.639 43.664C220.551 44.24 219.255 44.528 217.751 44.528C215.991 44.528 214.327 44.096 212.759 43.232C212.567 43.04 212.471 42.848 212.471 42.656L212.375 37.904C212.375 37.808 212.455 37.76 212.615 37.76C212.807 37.728 212.919 37.744 212.951 37.808C213.463 39.408 214.311 40.768 215.495 41.888C216.679 43.008 217.879 43.568 219.095 43.568C219.767 43.568 220.295 43.36 220.679 42.944C221.095 42.528 221.303 41.92 221.303 41.12C221.303 39.936 220.967 39.008 220.295 38.336C219.623 37.632 218.631 36.912 217.319 36.176C216.199 35.568 215.351 35.072 214.775 34.688C214.199 34.304 213.687 33.76 213.239 33.056C212.791 32.352 212.567 31.488 212.567 30.464C212.567 28.576 213.239 27.2 214.583 26.336C215.927 25.44 217.575 24.992 219.527 24.992C220.263 24.992 220.919 25.04 221.495 25.136C222.103 25.232 222.775 25.424 223.511 25.712C223.799 25.808 223.943 25.984 223.943 26.24C223.943 27.04 223.927 27.664 223.895 28.112L223.847 30.512C223.847 30.608 223.751 30.656 223.559 30.656C223.367 30.656 223.271 30.608 223.271 30.512C223.271 29.904 223.015 29.248 222.503 28.544C221.991 27.808 221.319 27.184 220.487 26.672C219.687 26.16 218.855 25.904 217.991 25.904C216.679 25.904 216.023 26.528 216.023 27.776ZM237.763 44.576C235.651 44.576 233.859 44.128 232.387 43.232C230.947 42.304 229.859 41.12 229.123 39.68C228.419 38.208 228.067 36.672 228.067 35.072C228.067 33.056 228.627 31.296 229.747 29.792C230.867 28.256 232.291 27.088 234.019 26.288C235.779 25.456 237.571 25.04 239.395 25.04C240.931 25.04 242.307 25.36 243.523 26C244.771 26.64 245.395 27.52 245.395 28.64C245.395 29.248 245.155 29.776 244.675 30.224C244.227 30.64 243.587 30.848 242.755 30.848C241.987 30.848 241.379 30.656 240.931 30.272C240.483 29.856 240.115 29.232 239.827 28.4C239.539 27.504 239.251 26.896 238.963 26.576C238.707 26.224 238.227 26.048 237.523 26.048C236.147 26.048 235.043 26.736 234.211 28.112C233.411 29.456 233.011 31.248 233.011 33.488C233.011 36.144 233.603 38.272 234.787 39.872C235.971 41.44 237.859 42.224 240.451 42.224C241.315 42.224 242.051 42.128 242.659 41.936C243.299 41.744 244.099 41.424 245.059 40.976H245.107C245.203 40.976 245.283 41.024 245.347 41.12C245.443 41.216 245.459 41.296 245.395 41.36C244.211 42.448 243.027 43.264 241.843 43.808C240.659 44.32 239.299 44.576 237.763 44.576ZM256.138 44.576C254.378 44.576 252.986 44.032 251.962 42.944C250.97 41.824 250.474 40.368 250.474 38.576V31.52C250.474 29.44 249.978 28.4 248.986 28.4C248.634 28.4 248.234 28.512 247.786 28.736H247.738C247.61 28.736 247.514 28.656 247.45 28.496C247.386 28.304 247.402 28.192 247.498 28.16L253.93 25.088L254.17 25.04C254.33 25.04 254.49 25.12 254.65 25.28C254.842 25.408 254.938 25.536 254.938 25.664V36.272C254.938 39.728 256.266 41.456 258.922 41.456C259.818 41.456 260.73 41.2 261.658 40.688C262.618 40.176 263.37 39.504 263.914 38.672L264.202 39.248C263.05 40.912 261.802 42.224 260.458 43.184C259.114 44.112 257.674 44.576 256.138 44.576ZM267.466 38.432C267.466 39.52 267.562 40.288 267.754 40.736C267.978 41.184 268.33 41.408 268.81 41.408C269.258 41.408 269.914 41.232 270.778 40.88H270.874C270.97 40.88 271.05 40.96 271.114 41.12C271.21 41.28 271.21 41.376 271.114 41.408L264.49 44.624C264.426 44.656 264.346 44.672 264.25 44.672C263.898 44.672 263.594 44.256 263.338 43.424C263.114 42.592 263.002 41.472 263.002 40.064V31.52C263.002 29.44 262.506 28.4 261.514 28.4C261.162 28.4 260.746 28.512 260.266 28.736H260.218C260.122 28.736 260.042 28.656 259.978 28.496C259.914 28.304 259.93 28.192 260.026 28.16L266.458 25.088C266.522 25.056 266.602 25.04 266.698 25.04C266.858 25.04 267.018 25.12 267.178 25.28C267.37 25.408 267.466 25.536 267.466 25.664V38.432ZM278.5 30.368C280.26 28.352 281.668 26.96 282.724 26.192C283.812 25.392 284.74 24.992 285.508 24.992C286.244 24.992 286.948 25.264 287.62 25.808C288.324 26.32 288.676 26.944 288.676 27.68C288.676 28.352 288.468 28.912 288.052 29.36C287.636 29.776 287.092 29.984 286.42 29.984C285.94 29.984 285.54 29.888 285.22 29.696C284.932 29.504 284.628 29.216 284.308 28.832C284.02 28.512 283.764 28.288 283.54 28.16C283.348 28 283.108 27.92 282.82 27.92C282.468 27.92 282.02 28.112 281.476 28.496C280.964 28.88 280.1 29.712 278.884 30.992L278.5 30.368ZM273.028 44C272.932 44 272.884 43.904 272.884 43.712C272.884 43.52 272.932 43.424 273.028 43.424C274.02 43.424 274.692 43.2 275.044 42.752C275.396 42.272 275.572 41.392 275.572 40.112V31.088C275.572 30.096 275.444 29.376 275.188 28.928C274.964 28.448 274.596 28.208 274.084 28.208C273.54 28.208 272.772 28.432 271.78 28.88H271.684C271.588 28.88 271.508 28.8 271.444 28.64C271.412 28.48 271.428 28.384 271.492 28.352L278.164 25.088C278.356 25.024 278.468 24.992 278.5 24.992C278.884 24.992 279.236 25.408 279.556 26.24C279.908 27.04 280.084 28.112 280.084 29.456V40.112C280.084 41.392 280.388 42.272 280.996 42.752C281.604 43.2 282.724 43.424 284.356 43.424C284.484 43.424 284.548 43.52 284.548 43.712C284.548 43.904 284.484 44 284.356 44C283.236 44 282.356 43.984 281.716 43.952L277.828 43.904L274.996 43.952C274.516 43.984 273.86 44 273.028 44ZM300.157 44.624C298.173 44.624 296.429 44.176 294.925 43.28C293.453 42.352 292.317 41.12 291.517 39.584C290.717 38.016 290.317 36.32 290.317 34.496C290.317 32.416 290.845 30.656 291.901 29.216C292.957 27.744 294.301 26.656 295.933 25.952C297.565 25.216 299.245 24.848 300.973 24.848C302.957 24.848 304.685 25.312 306.157 26.24C307.629 27.168 308.749 28.4 309.517 29.936C310.317 31.44 310.717 33.056 310.717 34.784C310.717 36.704 310.237 38.416 309.277 39.92C308.317 41.392 307.021 42.544 305.389 43.376C303.789 44.208 302.045 44.624 300.157 44.624ZM301.597 43.616C302.845 43.616 303.789 43.008 304.429 41.792C305.101 40.544 305.437 38.768 305.437 36.464C305.437 34.224 305.149 32.304 304.573 30.704C303.997 29.104 303.245 27.904 302.317 27.104C301.389 26.272 300.397 25.856 299.341 25.856C296.781 25.856 295.501 28.144 295.501 32.72C295.501 34.864 295.773 36.768 296.317 38.432C296.861 40.064 297.597 41.344 298.525 42.272C299.453 43.168 300.477 43.616 301.597 43.616Z" fill="#040D13"/>
<path d="M117.932 59.104L119.324 59.2L118.796 81.904C118.764 83.632 119.1 84.992 119.804 85.984C120.54 86.944 121.564 87.424 122.876 87.424C122.972 87.424 123.02 87.52 123.02 87.712C123.02 87.904 122.972 88 122.876 88C122.012 88 121.34 87.984 120.86 87.952L118.22 87.904L115.196 87.952C114.684 87.984 113.996 88 113.132 88C113.036 88 112.988 87.904 112.988 87.712C112.988 87.52 113.036 87.424 113.132 87.424C114.444 87.424 115.484 86.928 116.252 85.936C117.02 84.944 117.42 83.6 117.452 81.904L117.932 59.104ZM151.82 87.424C151.884 87.424 151.916 87.52 151.916 87.712C151.916 87.904 151.884 88 151.82 88C150.732 88 149.868 87.984 149.228 87.952L145.676 87.904L142.076 87.952C141.468 87.984 140.636 88 139.58 88C139.484 88 139.436 87.904 139.436 87.712C139.436 87.52 139.484 87.424 139.58 87.424C140.604 87.424 141.356 87.344 141.836 87.184C142.348 86.992 142.684 86.672 142.844 86.224C143.004 85.776 143.052 85.072 142.988 84.112L141.884 62.8L144.332 58.96L132.092 87.664C132.028 87.792 131.9 87.856 131.708 87.856C131.516 87.856 131.388 87.792 131.324 87.664L117.836 61.984C117.196 60.8 116.524 59.936 115.82 59.392C115.148 58.848 114.364 58.576 113.468 58.576C113.372 58.576 113.324 58.48 113.324 58.288C113.324 58.096 113.372 58 113.468 58L115.724 58.048C116.172 58.08 116.748 58.096 117.452 58.096L119.996 58.048C120.284 58.016 120.652 58 121.1 58C121.516 58 121.836 58.144 122.06 58.432C122.284 58.72 122.7 59.408 123.308 60.496L134.06 80.656L131.66 84.976L142.892 59.2C143.084 58.752 143.276 58.448 143.468 58.288C143.692 58.096 143.98 58 144.332 58C144.62 58 144.94 58.016 145.292 58.048C145.676 58.08 146.108 58.096 146.588 58.096L149.42 58.048C149.868 58.016 150.508 58 151.34 58C151.436 58 151.484 58.096 151.484 58.288C151.484 58.48 151.436 58.576 151.34 58.576C149.836 58.576 148.748 58.88 148.076 59.488C147.404 60.096 147.1 61.04 147.164 62.32L148.316 84.112C148.38 85.104 148.492 85.824 148.652 86.272C148.844 86.72 149.164 87.024 149.612 87.184C150.092 87.344 150.828 87.424 151.82 87.424ZM164.272 88.576C162.256 88.576 160.512 88.16 159.04 87.328C157.568 86.464 156.448 85.328 155.68 83.92C154.912 82.48 154.528 80.928 154.528 79.264C154.528 77.408 154.992 75.696 155.92 74.128C156.848 72.56 158.128 71.328 159.76 70.432C161.424 69.504 163.296 69.04 165.376 69.04C167.36 69.04 168.896 69.488 169.984 70.384C171.072 71.28 171.616 72.672 171.616 74.56C171.616 75.552 171.44 76.048 171.088 76.048H166.48C166.544 74.096 166.352 72.608 165.904 71.584C165.456 70.528 164.672 70 163.552 70C162.272 70 161.248 70.656 160.48 71.968C159.744 73.28 159.376 75.024 159.376 77.2C159.376 80.016 160.016 82.224 161.296 83.824C162.608 85.424 164.48 86.224 166.912 86.224C167.776 86.224 168.512 86.128 169.12 85.936C169.728 85.712 170.528 85.36 171.52 84.88L171.616 84.832C171.68 84.832 171.744 84.896 171.808 85.024C171.904 85.152 171.92 85.248 171.856 85.312C170.672 86.464 169.472 87.296 168.256 87.808C167.04 88.32 165.712 88.576 164.272 88.576ZM157.648 75.184L168.16 74.992V76.048L157.696 76.096L157.648 75.184ZM187.839 88C187.743 88 187.695 87.904 187.695 87.712C187.695 87.52 187.743 87.424 187.839 87.424C188.831 87.424 189.503 87.2 189.855 86.752C190.207 86.272 190.383 85.392 190.383 84.112V77.2C190.383 75.472 190.063 74.192 189.423 73.36C188.815 72.528 187.839 72.112 186.495 72.112C185.503 72.112 184.495 72.368 183.471 72.88C182.479 73.36 181.695 74 181.119 74.8L180.879 74.224C182.031 72.56 183.311 71.264 184.719 70.336C186.159 69.376 187.679 68.896 189.279 68.896C191.007 68.896 192.367 69.456 193.359 70.576C194.383 71.664 194.895 73.104 194.895 74.896V84.112C194.895 85.392 195.071 86.272 195.423 86.752C195.807 87.2 196.495 87.424 197.487 87.424C197.583 87.424 197.631 87.52 197.631 87.712C197.631 87.904 197.583 88 197.487 88C196.655 88 195.999 87.984 195.519 87.952L192.639 87.904L189.855 87.952C189.343 87.984 188.671 88 187.839 88ZM174.927 88C174.831 88 174.783 87.904 174.783 87.712C174.783 87.52 174.831 87.424 174.927 87.424C175.919 87.424 176.591 87.2 176.943 86.752C177.295 86.272 177.471 85.392 177.471 84.112V75.088C177.471 74.096 177.343 73.376 177.087 72.928C176.863 72.448 176.495 72.208 175.983 72.208C175.439 72.208 174.671 72.432 173.679 72.88H173.583C173.487 72.88 173.407 72.8 173.343 72.64C173.311 72.48 173.327 72.384 173.391 72.352L180.063 69.088C180.255 69.024 180.367 68.992 180.399 68.992C180.783 68.992 181.135 69.408 181.455 70.24C181.807 71.04 181.983 72.112 181.983 73.456V84.112C181.983 85.392 182.159 86.272 182.511 86.752C182.895 87.2 183.583 87.424 184.575 87.424C184.671 87.424 184.719 87.52 184.719 87.712C184.719 87.904 184.671 88 184.575 88C183.743 88 183.087 87.984 182.607 87.952L179.727 87.904L176.895 87.952C176.415 87.984 175.759 88 174.927 88ZM207.152 88.576C205.744 88.576 204.544 88.24 203.552 87.568C202.56 86.896 202.064 85.76 202.064 84.16V73.504C202.064 72.512 201.888 71.824 201.536 71.44C201.184 71.056 200.544 70.864 199.616 70.864C199.584 70.864 199.536 70.816 199.472 70.72C199.44 70.624 199.424 70.528 199.424 70.432C199.424 70.304 199.44 70.208 199.472 70.144C199.504 70.048 199.552 70 199.616 70C201.248 69.936 202.56 69.584 203.552 68.944C204.576 68.304 205.36 67.328 205.904 66.016C205.968 65.888 206.096 65.824 206.288 65.824C206.512 65.824 206.624 65.888 206.624 66.016V82.576C206.624 83.792 206.928 84.688 207.536 85.264C208.176 85.84 209.008 86.128 210.032 86.128C211.312 86.128 212.56 85.648 213.776 84.688L213.872 84.64C214 84.64 214.096 84.704 214.16 84.832C214.256 84.96 214.256 85.056 214.16 85.12C212.976 86.304 211.824 87.184 210.704 87.76C209.584 88.304 208.4 88.576 207.152 88.576ZM212.672 71.92C210.336 71.408 207.76 71.152 204.944 71.152V69.904C207.024 69.904 209.664 69.744 212.864 69.424C212.928 69.424 212.992 69.552 213.056 69.808C213.152 70.032 213.2 70.288 213.2 70.576C213.2 70.896 213.136 71.216 213.008 71.536C212.912 71.824 212.8 71.952 212.672 71.92ZM225.725 88.576C223.709 88.576 221.965 88.16 220.493 87.328C219.021 86.464 217.901 85.328 217.133 83.92C216.365 82.48 215.981 80.928 215.981 79.264C215.981 77.408 216.445 75.696 217.373 74.128C218.301 72.56 219.581 71.328 221.213 70.432C222.877 69.504 224.749 69.04 226.829 69.04C228.813 69.04 230.349 69.488 231.437 70.384C232.525 71.28 233.069 72.672 233.069 74.56C233.069 75.552 232.893 76.048 232.541 76.048H227.933C227.997 74.096 227.805 72.608 227.357 71.584C226.909 70.528 226.125 70 225.005 70C223.725 70 222.701 70.656 221.933 71.968C221.197 73.28 220.829 75.024 220.829 77.2C220.829 80.016 221.469 82.224 222.749 83.824C224.061 85.424 225.933 86.224 228.365 86.224C229.229 86.224 229.965 86.128 230.573 85.936C231.181 85.712 231.981 85.36 232.973 84.88L233.069 84.832C233.133 84.832 233.197 84.896 233.261 85.024C233.357 85.152 233.373 85.248 233.309 85.312C232.125 86.464 230.925 87.296 229.709 87.808C228.493 88.32 227.165 88.576 225.725 88.576ZM219.101 75.184L229.613 74.992V76.048L219.149 76.096L219.101 75.184ZM254.494 88.624C253.182 88.624 251.966 88.304 250.846 87.664C249.758 86.992 248.894 86.016 248.254 84.736C247.614 83.456 247.294 81.92 247.294 80.128C247.294 77.856 247.822 75.872 248.878 74.176C249.934 72.448 251.326 71.136 253.054 70.24C254.782 69.344 256.638 68.896 258.622 68.896C260.958 68.896 262.958 69.632 264.622 71.104L261.118 74.176C261.118 72.928 260.766 71.904 260.062 71.104C259.39 70.304 258.494 69.904 257.374 69.904C255.774 69.904 254.51 70.704 253.582 72.304C252.686 73.904 252.238 75.968 252.238 78.496C252.238 80.896 252.638 82.768 253.438 84.112C254.27 85.424 255.438 86.08 256.942 86.08C258.446 86.08 260.11 85.376 261.934 83.968L262.318 84.304C260.974 85.68 259.71 86.752 258.526 87.52C257.374 88.256 256.03 88.624 254.494 88.624ZM262.414 88.672C262.062 88.672 261.758 88.256 261.502 87.424C261.246 86.592 261.118 85.472 261.118 84.064V70.768C262.174 70.512 262.974 70.272 263.518 70.048C264.094 69.792 264.638 69.408 265.15 68.896C265.182 68.864 265.23 68.848 265.294 68.848C265.358 68.848 265.422 68.88 265.486 68.944C265.582 68.976 265.63 69.024 265.63 69.088V82.768C265.63 83.728 265.726 84.416 265.918 84.832C266.142 85.216 266.494 85.408 266.974 85.408C267.39 85.408 268.046 85.232 268.942 84.88H269.038C269.134 84.88 269.214 84.96 269.278 85.12C269.374 85.28 269.374 85.376 269.278 85.408L262.654 88.624C262.59 88.656 262.51 88.672 262.414 88.672ZM280.521 88.576C278.409 88.576 276.617 88.128 275.145 87.232C273.705 86.304 272.617 85.12 271.881 83.68C271.177 82.208 270.825 80.672 270.825 79.072C270.825 77.056 271.385 75.296 272.505 73.792C273.625 72.256 275.049 71.088 276.777 70.288C278.537 69.456 280.329 69.04 282.153 69.04C283.689 69.04 285.065 69.36 286.281 70C287.529 70.64 288.153 71.52 288.153 72.64C288.153 73.248 287.913 73.776 287.433 74.224C286.985 74.64 286.345 74.848 285.513 74.848C284.745 74.848 284.137 74.656 283.689 74.272C283.241 73.856 282.873 73.232 282.585 72.4C282.297 71.504 282.009 70.896 281.721 70.576C281.465 70.224 280.985 70.048 280.281 70.048C278.905 70.048 277.801 70.736 276.969 72.112C276.169 73.456 275.769 75.248 275.769 77.488C275.769 80.144 276.361 82.272 277.545 83.872C278.729 85.44 280.617 86.224 283.209 86.224C284.073 86.224 284.809 86.128 285.417 85.936C286.057 85.744 286.857 85.424 287.817 84.976H287.865C287.961 84.976 288.041 85.024 288.105 85.12C288.201 85.216 288.217 85.296 288.153 85.36C286.969 86.448 285.785 87.264 284.601 87.808C283.417 88.32 282.057 88.576 280.521 88.576ZM300.678 88.576C298.662 88.576 296.918 88.16 295.446 87.328C293.974 86.464 292.854 85.328 292.086 83.92C291.318 82.48 290.934 80.928 290.934 79.264C290.934 77.408 291.398 75.696 292.326 74.128C293.254 72.56 294.534 71.328 296.166 70.432C297.83 69.504 299.702 69.04 301.782 69.04C303.766 69.04 305.302 69.488 306.39 70.384C307.478 71.28 308.022 72.672 308.022 74.56C308.022 75.552 307.846 76.048 307.494 76.048H302.886C302.95 74.096 302.758 72.608 302.31 71.584C301.862 70.528 301.078 70 299.958 70C298.678 70 297.654 70.656 296.886 71.968C296.15 73.28 295.782 75.024 295.782 77.2C295.782 80.016 296.422 82.224 297.702 83.824C299.014 85.424 300.886 86.224 303.318 86.224C304.182 86.224 304.918 86.128 305.526 85.936C306.134 85.712 306.934 85.36 307.926 84.88L308.022 84.832C308.086 84.832 308.15 84.896 308.214 85.024C308.31 85.152 308.326 85.248 308.262 85.312C307.078 86.464 305.878 87.296 304.662 87.808C303.446 88.32 302.118 88.576 300.678 88.576ZM294.054 75.184L304.566 74.992V76.048L294.102 76.096L294.054 75.184ZM315.125 71.776C315.125 72.704 315.445 73.504 316.085 74.176C316.757 74.848 317.717 75.552 318.965 76.288C320.181 76.992 321.077 77.552 321.653 77.968C322.261 78.352 322.805 78.912 323.285 79.648C323.765 80.352 324.005 81.216 324.005 82.24C324.005 83.328 323.733 84.352 323.189 85.312C322.645 86.272 321.829 87.056 320.741 87.664C319.653 88.24 318.357 88.528 316.853 88.528C315.093 88.528 313.429 88.096 311.861 87.232C311.669 87.04 311.573 86.848 311.573 86.656L311.477 81.904C311.477 81.808 311.557 81.76 311.717 81.76C311.909 81.728 312.021 81.744 312.053 81.808C312.565 83.408 313.413 84.768 314.597 85.888C315.781 87.008 316.981 87.568 318.197 87.568C318.869 87.568 319.397 87.36 319.781 86.944C320.197 86.528 320.405 85.92 320.405 85.12C320.405 83.936 320.069 83.008 319.397 82.336C318.725 81.632 317.733 80.912 316.421 80.176C315.301 79.568 314.453 79.072 313.877 78.688C313.301 78.304 312.789 77.76 312.341 77.056C311.893 76.352 311.669 75.488 311.669 74.464C311.669 72.576 312.341 71.2 313.685 70.336C315.029 69.44 316.677 68.992 318.629 68.992C319.365 68.992 320.021 69.04 320.597 69.136C321.205 69.232 321.877 69.424 322.613 69.712C322.901 69.808 323.045 69.984 323.045 70.24C323.045 71.04 323.029 71.664 322.997 72.112L322.949 74.512C322.949 74.608 322.853 74.656 322.661 74.656C322.469 74.656 322.373 74.608 322.373 74.512C322.373 73.904 322.117 73.248 321.605 72.544C321.093 71.808 320.421 71.184 319.589 70.672C318.789 70.16 317.957 69.904 317.093 69.904C315.781 69.904 315.125 70.528 315.125 71.776ZM334.369 88.624C333.057 88.624 331.841 88.304 330.721 87.664C329.633 86.992 328.769 86.016 328.129 84.736C327.489 83.456 327.169 81.92 327.169 80.128C327.169 77.856 327.697 75.872 328.753 74.176C329.809 72.448 331.201 71.136 332.929 70.24C334.657 69.344 336.513 68.896 338.497 68.896C340.833 68.896 342.833 69.632 344.497 71.104L340.993 74.176C340.993 72.928 340.641 71.904 339.937 71.104C339.265 70.304 338.369 69.904 337.249 69.904C335.649 69.904 334.385 70.704 333.457 72.304C332.561 73.904 332.113 75.968 332.113 78.496C332.113 80.896 332.513 82.768 333.313 84.112C334.145 85.424 335.313 86.08 336.817 86.08C338.321 86.08 339.985 85.376 341.809 83.968L342.193 84.304C340.849 85.68 339.585 86.752 338.401 87.52C337.249 88.256 335.905 88.624 334.369 88.624ZM342.289 88.672C341.937 88.672 341.633 88.256 341.377 87.424C341.121 86.592 340.993 85.472 340.993 84.064V70.768C342.049 70.512 342.849 70.272 343.393 70.048C343.969 69.792 344.513 69.408 345.025 68.896C345.057 68.864 345.105 68.848 345.169 68.848C345.233 68.848 345.297 68.88 345.361 68.944C345.457 68.976 345.505 69.024 345.505 69.088V82.768C345.505 83.728 345.601 84.416 345.793 84.832C346.017 85.216 346.369 85.408 346.849 85.408C347.265 85.408 347.921 85.232 348.817 84.88H348.913C349.009 84.88 349.089 84.96 349.153 85.12C349.249 85.28 349.249 85.376 349.153 85.408L342.529 88.624C342.465 88.656 342.385 88.672 342.289 88.672Z" fill="#040D13"/>
<path fill-rule="evenodd" clip-rule="evenodd" d="M346.035 11.625C349.175 13.4115 351.783 16.0004 353.594 19.1266C355.404 22.2528 356.352 25.804 356.339 29.4167C356.339 40.6458 347.387 49.75 336.346 49.75C333.433 49.75 330.663 49.1146 328.167 47.9759C332.259 53.6743 338.875 57.375 346.342 57.375C358.763 57.375 368.833 47.1321 368.833 34.5C368.833 21.8679 358.763 11.625 346.342 11.625H346.035Z" fill="#F1B559"/>
<path d="M55.2723 28.2812C55.7777 27.6295 56.5222 26.3599 57.6002 24.6718L57.601 24.6709C56.2351 26.0043 55.2073 26.924 54.6804 27.5483C54.7638 26.029 54.631 23.0012 54.4996 18C54.3683 23.0012 54.2355 26.0289 54.3196 27.5502C53.792 26.9259 52.7649 26.0053 51.3991 24.6728L51.3998 24.6737C52.4786 26.3617 53.2224 27.6314 53.7278 28.2831C52.497 28.1792 50.0473 28.3432 46 28.5055C50.0473 28.6677 52.4971 28.8318 53.7278 28.7279C53.2223 29.3795 52.4778 30.6492 51.3991 32.3372L51.3998 32.3363C52.7656 31.0038 53.7927 30.0842 54.3203 29.4589C54.2355 30.9792 54.3683 34.0042 54.4996 39C54.631 34.0044 54.7638 30.9793 54.6797 29.4589C55.2073 30.0832 56.2344 31.0029 57.6002 32.3363L57.6009 32.3372C56.5222 30.6483 55.7777 29.3786 55.2722 28.7269C56.503 28.8308 58.9527 28.6668 63 28.5045C58.9527 28.3414 56.5029 28.1782 55.2723 28.2812Z" fill="#F1B559"/>
<path d="M55 78C62.6609 78 66 73.312 66 62C66 73.312 69.3159 78 77 78C69.3159 78 66 82.8231 66 94C66 82.8231 62.6609 78 55 78Z" fill="#F1B559" stroke="#F1B559" stroke-width="1.5" stroke-linejoin="round"/>
</svg>
